<mxfile host="app.diagrams.net" modified="2021-02-22T06:35:41.902Z" agent="5.0 (Windows NT 10.0; Win64; x64) AppleWebKit/537.36 (KHTML, like Gecko) Chrome/88.0.4324.182 Safari/537.36" etag="KtjsOR-qxA_36f3tjskk" version="14.4.2" type="github">
  <diagram id="MCrErEPo9ilewAODCz-R" name="Page-1">
    <mxGraphModel dx="1849" dy="1638" grid="1" gridSize="10" guides="1" tooltips="1" connect="1" arrows="1" fold="1" page="1" pageScale="1" pageWidth="827" pageHeight="1169" math="0" shadow="0">
      <root>
        <mxCell id="0" />
        <mxCell id="1" parent="0" />
        <mxCell id="4mogOLO7gWN9tjYVBM8P-2" value="" style="endArrow=none;html=1;sketch=1;strokeWidth=2" parent="1" edge="1">
          <mxGeometry width="50" height="50" relative="1" as="geometry">
            <mxPoint as="sourcePoint" />
            <mxPoint x="800" as="targetPoint" />
          </mxGeometry>
        </mxCell>
        <mxCell id="4mogOLO7gWN9tjYVBM8P-3" value="" style="endArrow=none;html=1;sketch=1;strokeWidth=2" parent="1" edge="1">
          <mxGeometry width="50" height="50" relative="1" as="geometry">
            <mxPoint as="sourcePoint" />
            <mxPoint y="450" as="targetPoint" />
          </mxGeometry>
        </mxCell>
        <mxCell id="4mogOLO7gWN9tjYVBM8P-4" value="" style="endArrow=none;html=1;sketch=1;strokeWidth=2" parent="1" edge="1">
          <mxGeometry width="50" height="50" relative="1" as="geometry">
            <mxPoint y="450" as="sourcePoint" />
            <mxPoint x="800" y="450" as="targetPoint" />
          </mxGeometry>
        </mxCell>
        <mxCell id="4mogOLO7gWN9tjYVBM8P-5" value="" style="endArrow=none;html=1;sketch=1;strokeWidth=2" parent="1" edge="1">
          <mxGeometry width="50" height="50" relative="1" as="geometry">
            <mxPoint x="800" as="sourcePoint" />
            <mxPoint x="800" y="450" as="targetPoint" />
          </mxGeometry>
        </mxCell>
        <mxCell id="z-4D-xyZi6Ggd6ufVYCo-5" value="" style="rounded=1;whiteSpace=wrap;html=1;strokeWidth=2;fillWeight=4;hachureGap=0;hachureAngle=45;fillColor=#F2F2F2;sketch=1;rotation=-180;" parent="1" vertex="1">
          <mxGeometry x="230" y="170" width="84" height="30" as="geometry" />
        </mxCell>
        <mxCell id="GuQGx1tjLfm4qj2VWrpc-8" value="" style="endArrow=none;html=1;sketch=1;strokeWidth=2;strokeColor=#860DFF;" parent="1" edge="1">
          <mxGeometry width="50" height="50" relative="1" as="geometry">
            <mxPoint x="70" y="80" as="sourcePoint" />
            <mxPoint x="740" y="80" as="targetPoint" />
          </mxGeometry>
        </mxCell>
        <mxCell id="GuQGx1tjLfm4qj2VWrpc-13" value="" style="rounded=1;whiteSpace=wrap;html=1;fillWeight=4;hachureGap=0;hachureAngle=45;fillColor=#F2F2F2;sketch=1;rotation=-180;strokeWidth=2" parent="1" vertex="1">
          <mxGeometry x="70" y="100" width="674" height="30" as="geometry" />
        </mxCell>
        <mxCell id="GuQGx1tjLfm4qj2VWrpc-14" value="" style="rounded=1;whiteSpace=wrap;html=1;strokeWidth=2;fillWeight=4;hachureGap=0;hachureAngle=45;fillColor=#F2F2F2;sketch=1;rotation=-180;" parent="1" vertex="1">
          <mxGeometry x="330" y="170" width="74" height="30" as="geometry" />
        </mxCell>
        <mxCell id="GuQGx1tjLfm4qj2VWrpc-16" value="" style="rounded=1;whiteSpace=wrap;html=1;strokeWidth=2;fillWeight=4;hachureGap=0;hachureAngle=45;fillColor=#F2F2F2;sketch=1;rotation=-180;strokeColor=#0014CD" parent="1" vertex="1">
          <mxGeometry x="490" y="170" width="70" height="30" as="geometry" />
        </mxCell>
        <mxCell id="GuQGx1tjLfm4qj2VWrpc-18" value="" style="rounded=1;whiteSpace=wrap;html=1;strokeWidth=2;fillWeight=4;hachureGap=0;hachureAngle=45;fillColor=#F2F2F2;sketch=1;rotation=-180;" parent="1" vertex="1">
          <mxGeometry x="70" y="170" width="144" height="30" as="geometry" />
        </mxCell>
        <mxCell id="GuQGx1tjLfm4qj2VWrpc-20" value="" style="rounded=1;whiteSpace=wrap;html=1;strokeWidth=2;fillWeight=4;hachureGap=0;hachureAngle=45;fillColor=#F2F2F2;sketch=1;rotation=-180;" parent="1" vertex="1">
          <mxGeometry x="660" y="170" width="84" height="30" as="geometry" />
        </mxCell>
        <mxCell id="GuQGx1tjLfm4qj2VWrpc-22" value="" style="verticalLabelPosition=bottom;verticalAlign=top;html=1;shape=mxgraph.flowchart.on-page_reference;sketch=1;strokeWidth=2;strokeColor=#0FDA00" parent="1" vertex="1">
          <mxGeometry x="430" y="170" width="30" height="30" as="geometry" />
        </mxCell>
        <mxCell id="GuQGx1tjLfm4qj2VWrpc-23" value="" style="verticalLabelPosition=bottom;verticalAlign=top;html=1;shape=mxgraph.basic.heart;sketch=1;strokeWidth=2;strokeColor=#FF2807" parent="1" vertex="1">
          <mxGeometry x="590" y="170" width="30" height="30" as="geometry" />
        </mxCell>
        <mxCell id="GuQGx1tjLfm4qj2VWrpc-26" value="" style="endArrow=none;html=1;sketch=1;strokeWidth=1;" parent="1" edge="1">
          <mxGeometry width="50" height="50" relative="1" as="geometry">
            <mxPoint x="72" y="221" as="sourcePoint" />
            <mxPoint x="742" y="221" as="targetPoint" />
          </mxGeometry>
        </mxCell>
        <mxCell id="GuQGx1tjLfm4qj2VWrpc-27" value="" style="rounded=1;whiteSpace=wrap;html=1;strokeWidth=2;fillWeight=4;hachureGap=0;hachureAngle=45;fillColor=#F2F2F2;sketch=1;rotation=-180;" parent="1" vertex="1">
          <mxGeometry x="230" y="250" width="84" height="30" as="geometry" />
        </mxCell>
        <mxCell id="GuQGx1tjLfm4qj2VWrpc-28" value="" style="rounded=1;whiteSpace=wrap;html=1;strokeWidth=2;fillWeight=4;hachureGap=0;hachureAngle=45;fillColor=#F2F2F2;sketch=1;rotation=-180;" parent="1" vertex="1">
          <mxGeometry x="330" y="250" width="74" height="30" as="geometry" />
        </mxCell>
        <mxCell id="GuQGx1tjLfm4qj2VWrpc-30" value="" style="rounded=1;whiteSpace=wrap;html=1;strokeWidth=2;fillWeight=4;hachureGap=0;hachureAngle=45;fillColor=#F2F2F2;sketch=1;rotation=-180;" parent="1" vertex="1">
          <mxGeometry x="70" y="250" width="144" height="30" as="geometry" />
        </mxCell>
        <mxCell id="GuQGx1tjLfm4qj2VWrpc-31" value="" style="rounded=1;whiteSpace=wrap;html=1;strokeWidth=2;fillWeight=4;hachureGap=0;hachureAngle=45;fillColor=#F2F2F2;sketch=1;rotation=-180;" parent="1" vertex="1">
          <mxGeometry x="660" y="250" width="84" height="30" as="geometry" />
        </mxCell>
        <mxCell id="GuQGx1tjLfm4qj2VWrpc-32" value="" style="verticalLabelPosition=bottom;verticalAlign=top;html=1;shape=mxgraph.flowchart.on-page_reference;sketch=1;strokeWidth=2;strokeColor=#0FDA00" parent="1" vertex="1">
          <mxGeometry x="430" y="250" width="30" height="30" as="geometry" />
        </mxCell>
        <mxCell id="GuQGx1tjLfm4qj2VWrpc-33" value="" style="verticalLabelPosition=bottom;verticalAlign=top;html=1;shape=mxgraph.basic.heart;sketch=1;strokeWidth=2;strokeColor=#FF2807" parent="1" vertex="1">
          <mxGeometry x="590" y="250" width="30" height="30" as="geometry" />
        </mxCell>
        <mxCell id="GuQGx1tjLfm4qj2VWrpc-34" value="" style="endArrow=none;html=1;sketch=1;strokeWidth=1;" parent="1" edge="1">
          <mxGeometry width="50" height="50" relative="1" as="geometry">
            <mxPoint x="72" y="301" as="sourcePoint" />
            <mxPoint x="742" y="301" as="targetPoint" />
          </mxGeometry>
        </mxCell>
        <mxCell id="GuQGx1tjLfm4qj2VWrpc-35" value="" style="rounded=1;whiteSpace=wrap;html=1;strokeWidth=2;fillWeight=4;hachureGap=0;hachureAngle=45;fillColor=#F2F2F2;sketch=1;rotation=-180;" parent="1" vertex="1">
          <mxGeometry x="230" y="330" width="84" height="30" as="geometry" />
        </mxCell>
        <mxCell id="GuQGx1tjLfm4qj2VWrpc-36" value="" style="rounded=1;whiteSpace=wrap;html=1;strokeWidth=2;fillWeight=4;hachureGap=0;hachureAngle=45;fillColor=#F2F2F2;sketch=1;rotation=-180;" parent="1" vertex="1">
          <mxGeometry x="330" y="330" width="74" height="30" as="geometry" />
        </mxCell>
        <mxCell id="GuQGx1tjLfm4qj2VWrpc-38" value="" style="rounded=1;whiteSpace=wrap;html=1;strokeWidth=2;fillWeight=4;hachureGap=0;hachureAngle=45;fillColor=#F2F2F2;sketch=1;rotation=-180;" parent="1" vertex="1">
          <mxGeometry x="70" y="330" width="144" height="30" as="geometry" />
        </mxCell>
        <mxCell id="GuQGx1tjLfm4qj2VWrpc-39" value="" style="rounded=1;whiteSpace=wrap;html=1;strokeWidth=2;fillWeight=4;hachureGap=0;hachureAngle=45;fillColor=#F2F2F2;sketch=1;rotation=-180;" parent="1" vertex="1">
          <mxGeometry x="660" y="330" width="84" height="30" as="geometry" />
        </mxCell>
        <mxCell id="GuQGx1tjLfm4qj2VWrpc-40" value="" style="verticalLabelPosition=bottom;verticalAlign=top;html=1;shape=mxgraph.flowchart.on-page_reference;sketch=1;strokeWidth=2;strokeColor=#0FDA00" parent="1" vertex="1">
          <mxGeometry x="430" y="330" width="30" height="30" as="geometry" />
        </mxCell>
        <mxCell id="GuQGx1tjLfm4qj2VWrpc-41" value="" style="verticalLabelPosition=bottom;verticalAlign=top;html=1;shape=mxgraph.basic.heart;sketch=1;strokeWidth=2;strokeColor=#FF2807" parent="1" vertex="1">
          <mxGeometry x="590" y="330" width="30" height="30" as="geometry" />
        </mxCell>
        <mxCell id="GuQGx1tjLfm4qj2VWrpc-42" value="" style="endArrow=none;html=1;sketch=1;strokeWidth=1;" parent="1" edge="1">
          <mxGeometry width="50" height="50" relative="1" as="geometry">
            <mxPoint x="72" y="381" as="sourcePoint" />
            <mxPoint x="742" y="381" as="targetPoint" />
          </mxGeometry>
        </mxCell>
        <mxCell id="tBi2N07oMwOx1Hhrt2WQ-1" value="&lt;font style=&quot;font-size: 24px&quot;&gt;&lt;b&gt;Dashboard&lt;/b&gt;&lt;/font&gt;" style="text;html=1;strokeColor=none;fillColor=none;align=center;verticalAlign=middle;whiteSpace=wrap;rounded=0;" parent="1" vertex="1">
          <mxGeometry x="70" y="20" width="120" height="30" as="geometry" />
        </mxCell>
        <mxCell id="tBi2N07oMwOx1Hhrt2WQ-4" value="&lt;font style=&quot;font-size: 14px&quot;&gt;&lt;b&gt;Address&lt;/b&gt;&lt;/font&gt;" style="text;html=1;strokeColor=none;fillColor=none;align=center;verticalAlign=middle;whiteSpace=wrap;rounded=0;" parent="1" vertex="1">
          <mxGeometry x="120" y="104" width="50" height="20" as="geometry" />
        </mxCell>
        <mxCell id="tBi2N07oMwOx1Hhrt2WQ-5" value="&lt;font style=&quot;font-size: 14px&quot;&gt;&lt;b&gt;Domain&lt;/b&gt;&lt;/font&gt;" style="text;html=1;strokeColor=none;fillColor=none;align=center;verticalAlign=middle;whiteSpace=wrap;rounded=0;" parent="1" vertex="1">
          <mxGeometry x="230" y="104" width="80" height="20" as="geometry" />
        </mxCell>
        <mxCell id="tBi2N07oMwOx1Hhrt2WQ-6" value="&lt;font style=&quot;font-size: 14px&quot;&gt;&lt;b&gt;Expiry&lt;/b&gt;&lt;/font&gt;" style="text;html=1;strokeColor=none;fillColor=none;align=center;verticalAlign=middle;whiteSpace=wrap;rounded=0;" parent="1" vertex="1">
          <mxGeometry x="342" y="104" width="50" height="20" as="geometry" />
        </mxCell>
        <mxCell id="tBi2N07oMwOx1Hhrt2WQ-7" value="&lt;font style=&quot;font-size: 14px&quot;&gt;&lt;b&gt;Verified&lt;/b&gt;&lt;/font&gt;" style="text;html=1;strokeColor=none;fillColor=none;align=center;verticalAlign=middle;whiteSpace=wrap;rounded=0;" parent="1" vertex="1">
          <mxGeometry x="420" y="104" width="50" height="20" as="geometry" />
        </mxCell>
        <mxCell id="tBi2N07oMwOx1Hhrt2WQ-8" value="&lt;font style=&quot;font-size: 14px&quot;&gt;&lt;b&gt;Registry&lt;/b&gt;&lt;/font&gt;" style="text;html=1;strokeColor=none;fillColor=none;align=center;verticalAlign=middle;whiteSpace=wrap;rounded=0;" parent="1" vertex="1">
          <mxGeometry x="500" y="104" width="50" height="20" as="geometry" />
        </mxCell>
        <mxCell id="tBi2N07oMwOx1Hhrt2WQ-9" value="&lt;font style=&quot;font-size: 14px&quot;&gt;&lt;b&gt;Favourites&lt;/b&gt;&lt;/font&gt;" style="text;html=1;strokeColor=none;fillColor=none;align=center;verticalAlign=middle;whiteSpace=wrap;rounded=0;" parent="1" vertex="1">
          <mxGeometry x="580" y="104" width="50" height="20" as="geometry" />
        </mxCell>
        <mxCell id="tBi2N07oMwOx1Hhrt2WQ-11" value="&lt;font style=&quot;font-size: 14px&quot;&gt;&lt;b&gt;Created At&lt;/b&gt;&lt;/font&gt;" style="text;html=1;strokeColor=none;fillColor=none;align=center;verticalAlign=middle;whiteSpace=wrap;rounded=0;" parent="1" vertex="1">
          <mxGeometry x="660" y="104" width="80" height="20" as="geometry" />
        </mxCell>
        <mxCell id="tBi2N07oMwOx1Hhrt2WQ-13" value="" style="rounded=1;whiteSpace=wrap;html=1;strokeWidth=2;fillWeight=4;hachureGap=0;hachureAngle=45;fillColor=#F2F2F2;sketch=1;rotation=-180;strokeColor=#0014CD" parent="1" vertex="1">
          <mxGeometry x="490" y="250" width="70" height="30" as="geometry" />
        </mxCell>
        <mxCell id="tBi2N07oMwOx1Hhrt2WQ-14" value="" style="rounded=1;whiteSpace=wrap;html=1;strokeWidth=2;fillWeight=4;hachureGap=0;hachureAngle=45;fillColor=#F2F2F2;sketch=1;rotation=-180;strokeColor=#0014CD" parent="1" vertex="1">
          <mxGeometry x="490" y="330" width="70" height="30" as="geometry" />
        </mxCell>
        <mxCell id="QcFaOh2rwevz414706ZS-4" value="" style="endArrow=none;html=1;sketch=1;strokeWidth=2;strokeColor=#0FDA00" edge="1" parent="1">
          <mxGeometry width="50" height="50" relative="1" as="geometry">
            <mxPoint x="444" y="194" as="sourcePoint" />
            <mxPoint x="434" y="187.99999999999977" as="targetPoint" />
            <Array as="points" />
          </mxGeometry>
        </mxCell>
        <mxCell id="QcFaOh2rwevz414706ZS-5" value="" style="endArrow=none;html=1;sketch=1;strokeWidth=2;strokeColor=#0FDA00" edge="1" parent="1">
          <mxGeometry width="50" height="50" relative="1" as="geometry">
            <mxPoint x="454" y="181" as="sourcePoint" />
            <mxPoint x="444" y="194.99999999999977" as="targetPoint" />
            <Array as="points" />
          </mxGeometry>
        </mxCell>
        <mxCell id="QcFaOh2rwevz414706ZS-6" value="" style="endArrow=none;html=1;sketch=1;strokeWidth=2;strokeColor=#0FDA00" edge="1" parent="1">
          <mxGeometry width="50" height="50" relative="1" as="geometry">
            <mxPoint x="444" y="274" as="sourcePoint" />
            <mxPoint x="434" y="267.9999999999998" as="targetPoint" />
            <Array as="points" />
          </mxGeometry>
        </mxCell>
        <mxCell id="QcFaOh2rwevz414706ZS-7" value="" style="endArrow=none;html=1;sketch=1;strokeWidth=2;strokeColor=#0FDA00" edge="1" parent="1">
          <mxGeometry width="50" height="50" relative="1" as="geometry">
            <mxPoint x="454" y="261" as="sourcePoint" />
            <mxPoint x="444" y="274.9999999999998" as="targetPoint" />
            <Array as="points" />
          </mxGeometry>
        </mxCell>
        <mxCell id="QcFaOh2rwevz414706ZS-8" value="" style="endArrow=none;html=1;sketch=1;strokeWidth=2;strokeColor=#0FDA00" edge="1" parent="1">
          <mxGeometry width="50" height="50" relative="1" as="geometry">
            <mxPoint x="445" y="354" as="sourcePoint" />
            <mxPoint x="435" y="347.9999999999998" as="targetPoint" />
            <Array as="points" />
          </mxGeometry>
        </mxCell>
        <mxCell id="QcFaOh2rwevz414706ZS-9" value="" style="endArrow=none;html=1;sketch=1;strokeWidth=2;strokeColor=#0FDA00" edge="1" parent="1">
          <mxGeometry width="50" height="50" relative="1" as="geometry">
            <mxPoint x="455" y="341" as="sourcePoint" />
            <mxPoint x="445" y="354.9999999999998" as="targetPoint" />
            <Array as="points" />
          </mxGeometry>
        </mxCell>
      </root>
    </mxGraphModel>
  </diagram>
</mxfile>
